<?xml version="1.0" encoding="UTF-8"?>
<svg id="_圖層_2" data-name="圖層 2" xmlns="http://www.w3.org/2000/svg" viewBox="0 -38 455.87 273.52" overflow="visible">
  <defs>
    <style>
      .cls-1 {
        fill: #fff;
      }

      svg {
        overflow: visible;
      }

      #text > g > * {
        --split-y: -30px;
        transform-box: fill-box;
        transform-origin: center;
        animation: split-title 7s cubic-bezier(.45, 0, .2, 1) infinite;
      }

      #text > g > *:nth-child(10n + 1) { --split-y: -30px; }
      #text > g > *:nth-child(10n + 2) { --split-y: 18px; }
      #text > g > *:nth-child(10n + 3) { --split-y: -16px; }
      #text > g > *:nth-child(10n + 4) { --split-y: 32px; }
      #text > g > *:nth-child(10n + 5) { --split-y: -23px; }
      #text > g > *:nth-child(10n + 6) { --split-y: 13px; }
      #text > g > *:nth-child(10n + 7) { --split-y: -11px; }
      #text > g > *:nth-child(10n + 8) { --split-y: 25px; }
      #text > g > *:nth-child(10n + 9) { --split-y: -20px; }
      #text > g > *:nth-child(10n) { --split-y: 16px; }

      #text > g {
        transform-box: fill-box;
        transform-origin: center;
        animation: assembled-float 7s ease-in-out infinite;
      }

      @keyframes split-title {
        0%, 100% {
          opacity: 0;
          transform: translateY(var(--split-y));
        }
        28.6%, 70% {
          opacity: 1;
          transform: translateY(0);
        }
        86% {
          opacity: 0;
          transform: translateY(var(--split-y));
        }
      }

      @keyframes assembled-float {
        0%, 100% { transform: translateY(0); }
        20% { transform: translateY(-7px); }
        40% { transform: translateY(5px); }
        60% { transform: translateY(-5px); }
        80% { transform: translateY(3px); }
      }
    </style>
  </defs>
  <g id="text">
    <g>
      <polygon class="cls-1" points="27.59 31.37 9.13 31.37 9.13 21.24 26.2 21.24 26.2 15.77 9.13 15.77 9.13 6.13 27.56 6.13 27.56 .56 2.64 .56 2.64 36.94 27.59 36.94 27.59 31.37"/>
      <path class="cls-1" d="M47.63,36.94l5.66-8.23c.52-.78,1.01-1.52,1.48-2.22.46-.7.92-1.39,1.35-2.07.26-.4.51-.82.77-1.24.26.42.53.85.78,1.25.43.69.87,1.38,1.33,2.07.46.69.94,1.43,1.44,2.21l5.54,8.23h7.52l-12.87-18.81L72.58.56h-7.23l-4.54,6.71c-.59.88-1.14,1.72-1.65,2.54s-1.01,1.62-1.49,2.42c-.23.38-.48.78-.72,1.17-.23-.39-.47-.79-.7-1.17-.48-.8-.97-1.6-1.46-2.42-.5-.81-1.04-1.66-1.62-2.54l-4.47-6.71h-7.42l12.04,17.77-13.06,18.61h7.37Z"/>
      <path class="cls-1" d="M93.25,24.02h7.23c2.7,0,5.03-.48,6.98-1.45s3.46-2.33,4.52-4.09,1.59-3.82,1.59-6.2-.52-4.42-1.55-6.18-2.52-3.12-4.46-4.09-4.26-1.45-6.96-1.45h-13.84v36.38h6.49v-12.91ZM100.11,6.05c1.5,0,2.77.26,3.81.77,1.04.51,1.84,1.23,2.39,2.16s.83,2.03.83,3.29-.28,2.37-.83,3.31-1.35,1.66-2.39,2.19-2.31.78-3.81.78h-6.86V6.05h6.86Z"/>
      <polygon class="cls-1" points="150.43 31.37 133.75 31.37 133.75 .56 127.26 .56 127.26 36.94 150.43 36.94 150.43 31.37"/>
      <path class="cls-1" d="M193.29,28.7c1.46-2.81,2.2-6.12,2.2-9.92s-.73-7.14-2.2-9.96c-1.46-2.81-3.47-4.99-6.01-6.52s-5.43-2.29-8.67-2.29-6.13.77-8.68,2.29c-2.55,1.53-4.55,3.7-6.02,6.52-1.46,2.82-2.2,6.14-2.2,9.96s.73,7.09,2.2,9.9c1.46,2.81,3.47,4.98,6.02,6.52,2.55,1.54,5.44,2.31,8.68,2.31s6.13-.77,8.67-2.29,4.54-3.7,6.01-6.51ZM183.91,30.19c-1.56,1-3.33,1.5-5.3,1.5s-3.76-.5-5.32-1.5c-1.56-1-2.79-2.46-3.7-4.38-.9-1.92-1.36-4.26-1.36-7.03s.45-5.14,1.36-7.07c.9-1.93,2.14-3.39,3.7-4.39,1.56-1,3.34-1.5,5.32-1.5s3.74.5,5.3,1.5c1.56,1,2.8,2.47,3.7,4.39.9,1.93,1.35,4.29,1.35,7.07s-.45,5.11-1.35,7.03c-.9,1.92-2.14,3.38-3.7,4.38Z"/>
      <path class="cls-1" d="M231.02,36.94h7.13l-7.65-14.43c.2-.08.41-.15.6-.24,1.99-.94,3.52-2.26,4.6-3.98,1.08-1.72,1.62-3.75,1.62-6.12s-.52-4.41-1.55-6.15c-1.03-1.74-2.52-3.09-4.46-4.04-1.94-.95-4.25-1.43-6.93-1.43h-14.09v36.38h6.49v-13.26h7.25s.06,0,.09,0l6.9,13.26ZM216.78,6.03h7.08c1.5,0,2.77.25,3.81.76s1.84,1.21,2.39,2.12c.55.91.83,2,.83,3.27s-.27,2.37-.82,3.28c-.55.92-1.34,1.63-2.38,2.12s-2.31.74-3.81.74h-7.1V6.03Z"/>
      <polygon class="cls-1" points="277.19 31.37 258.74 31.37 258.74 21.24 275.8 21.24 275.8 15.77 258.74 15.77 258.74 6.13 277.17 6.13 277.17 .56 252.24 .56 252.24 36.94 277.19 36.94 277.19 31.37"/>
      <path class="cls-1" d="M24.49,99.6c-.23.7-.5,1.56-.82,2.58s-.64,2.09-.98,3.22c-.32,1.07-.61,2.1-.88,3.08-.28-.99-.58-2.02-.9-3.1-.33-1.12-.66-2.19-.98-3.21s-.59-1.88-.82-2.58l-7.06-19.04H2.64v36.38h6.4v-18.51c0-.81-.01-1.75-.04-2.82-.02-1.06-.05-2.19-.09-3.38-.03-1.19-.06-2.39-.09-3.6,0-.15,0-.3,0-.45.08.27.17.53.25.79.4,1.28.79,2.51,1.17,3.7.38,1.19.74,2.28,1.06,3.26.33.98.61,1.82.85,2.5l6.93,18.51h5.32l6.88-18.51c.24-.68.52-1.52.84-2.51s.66-2.08,1.04-3.27c.37-1.19.76-2.42,1.15-3.7.13-.41.25-.81.37-1.22,0,.31-.01.61-.02.93-.02,1.21-.05,2.41-.09,3.6-.03,1.19-.06,2.31-.09,3.38s-.04,2-.04,2.79v18.51h6.4v-36.38h-9.45l-6.93,19.04Z"/>
      <path class="cls-1" d="M87.13,88.81c-1.46-2.81-3.47-4.99-6.01-6.52s-5.43-2.29-8.67-2.29-6.13.77-8.68,2.29-4.55,3.7-6.02,6.52c-1.46,2.82-2.2,6.14-2.2,9.96s.73,7.09,2.2,9.9c1.46,2.81,3.47,4.98,6.02,6.52,2.55,1.54,5.44,2.31,8.68,2.31s6.13-.77,8.67-2.29,4.54-3.7,6.01-6.51c1.46-2.81,2.2-6.12,2.2-9.92s-.73-7.14-2.2-9.96ZM81.45,105.8c-.9,1.92-2.14,3.38-3.7,4.38-1.56,1-3.33,1.5-5.3,1.5s-3.76-.5-5.32-1.5c-1.56-1-2.8-2.46-3.7-4.38-.9-1.92-1.35-4.26-1.35-7.03s.45-5.14,1.35-7.07c.9-1.93,2.14-3.39,3.7-4.39,1.56-1,3.34-1.5,5.32-1.5s3.74.5,5.3,1.5c1.56,1,2.79,2.47,3.7,4.39.9,1.93,1.36,4.29,1.36,7.07s-.45,5.11-1.36,7.03Z"/>
      <path class="cls-1" d="M131.99,116.94l-7.65-14.43c.2-.08.41-.15.6-.24,1.99-.94,3.52-2.26,4.6-3.98,1.08-1.72,1.62-3.75,1.62-6.12s-.52-4.41-1.55-6.15c-1.03-1.74-2.52-3.09-4.46-4.04-1.94-.95-4.25-1.43-6.93-1.43h-14.09v36.38h6.49v-13.26h7.25s.06,0,.09,0l6.9,13.26h7.13ZM110.62,86.03h7.08c1.5,0,2.77.25,3.81.76s1.84,1.21,2.39,2.12c.55.91.83,2,.83,3.27s-.27,2.37-.82,3.28c-.55.92-1.34,1.63-2.38,2.12s-2.31.74-3.81.74h-7.1v-12.3Z"/>
      <polygon class="cls-1" points="171.01 86.13 171.01 80.56 146.08 80.56 146.08 116.94 171.04 116.94 171.04 111.37 152.58 111.37 152.58 101.24 169.64 101.24 169.64 95.77 152.58 95.77 152.58 86.13 171.01 86.13"/>
      <path class="cls-1" d="M12.92,160.56L0,196.94h6.98l2.97-8.76h14.01l2.94,8.76h7.1l-12.94-36.38h-8.15ZM11.75,182.88l1.7-5c.65-2,1.33-4.16,2.03-6.47.47-1.54.97-3.27,1.52-5.16.55,1.89,1.06,3.62,1.52,5.16.69,2.31,1.35,4.47,1.99,6.47l1.68,5h-10.43Z"/>
      <path class="cls-1" d="M68.03,162.01c-1.94-.97-4.26-1.45-6.96-1.45h-13.84v36.38h6.49v-12.91h7.23c2.7,0,5.03-.48,6.98-1.45s3.46-2.33,4.52-4.09c1.06-1.76,1.59-3.82,1.59-6.2s-.52-4.42-1.55-6.18c-1.03-1.76-2.52-3.12-4.46-4.09ZM66.78,175.59c-.55.94-1.35,1.66-2.39,2.19-1.04.52-2.31.78-3.81.78h-6.86v-12.5h6.86c1.5,0,2.77.26,3.81.77,1.04.51,1.84,1.23,2.39,2.16.55.93.83,2.03.83,3.29s-.28,2.37-.83,3.31Z"/>
      <path class="cls-1" d="M108.53,162.01c-1.94-.97-4.26-1.45-6.96-1.45h-13.84v36.38h6.49v-12.91h7.23c2.7,0,5.03-.48,6.98-1.45s3.46-2.33,4.52-4.09c1.06-1.76,1.59-3.82,1.59-6.2s-.52-4.42-1.55-6.18-2.52-3.12-4.46-4.09ZM107.28,175.59c-.55.94-1.35,1.66-2.39,2.19-1.04.52-2.31.78-3.81.78h-6.86v-12.5h6.86c1.5,0,2.77.26,3.81.77,1.04.51,1.84,1.23,2.39,2.16.55.93.83,2.03.83,3.29s-.28,2.37-.83,3.31Z"/>
      <polygon class="cls-1" points="134.72 160.56 128.23 160.56 128.23 196.94 151.39 196.94 151.39 191.37 134.72 191.37 134.72 160.56"/>
      <rect class="cls-1" x="165" y="160.56" width="6.49" height="36.38"/>
      <path class="cls-1" d="M197.72,167.4c1.59-1.06,3.46-1.59,5.63-1.59,1.16,0,2.23.15,3.21.46.98.31,1.87.77,2.65,1.39s1.44,1.37,1.97,2.26c.53.89.91,1.9,1.14,3.04h6.57c-.31-2-.91-3.8-1.79-5.38-.89-1.59-2.02-2.95-3.39-4.08-1.38-1.13-2.94-2-4.7-2.6-1.76-.6-3.66-.9-5.71-.9-3.29,0-6.22.77-8.79,2.29-2.57,1.53-4.59,3.7-6.04,6.51-1.46,2.81-2.19,6.13-2.19,9.97s.73,7.12,2.19,9.92c1.46,2.81,3.47,4.98,6.03,6.51s5.5,2.29,8.8,2.29c2.08,0,4.01-.31,5.77-.93,1.77-.62,3.33-1.5,4.7-2.64s2.49-2.5,3.38-4.08c.89-1.58,1.47-3.34,1.75-5.27h-6.54c-.24,1.14-.63,2.15-1.17,3.03s-1.2,1.62-1.98,2.23c-.78.61-1.66,1.07-2.65,1.38-.98.31-2.05.46-3.19.46-2.17,0-4.04-.53-5.63-1.58-1.59-1.05-2.81-2.54-3.66-4.48s-1.28-4.22-1.28-6.86.43-4.95,1.28-6.88c.85-1.94,2.08-3.43,3.66-4.49Z"/>
      <path class="cls-1" d="M242.41,160.56l-12.92,36.38h6.98l2.97-8.76h14.01l2.94,8.76h7.1l-12.94-36.38h-8.15ZM241.25,182.88l1.7-5c.65-2,1.33-4.16,2.03-6.47.47-1.54.97-3.27,1.52-5.16.55,1.89,1.06,3.62,1.52,5.16.69,2.31,1.35,4.47,1.99,6.47l1.68,5h-10.43Z"/>
      <polygon class="cls-1" points="270.21 166.13 281.49 166.13 281.49 196.94 287.98 196.94 287.98 166.13 299.26 166.13 299.26 160.56 270.21 160.56 270.21 166.13"/>
      <rect class="cls-1" x="312.84" y="160.56" width="6.49" height="36.38"/>
      <path class="cls-1" d="M359.66,162.29c-2.54-1.53-5.43-2.29-8.67-2.29s-6.13.77-8.68,2.29-4.55,3.7-6.02,6.52c-1.46,2.82-2.2,6.14-2.2,9.96s.73,7.09,2.2,9.9c1.46,2.81,3.47,4.98,6.02,6.52,2.55,1.54,5.44,2.31,8.68,2.31s6.13-.77,8.67-2.29,4.54-3.7,6.01-6.51c1.46-2.81,2.2-6.12,2.2-9.92s-.73-7.14-2.2-9.96c-1.46-2.81-3.47-4.99-6.01-6.52ZM359.99,185.8c-.9,1.92-2.14,3.38-3.7,4.38-1.56,1-3.33,1.5-5.3,1.5s-3.76-.5-5.32-1.5c-1.56-1-2.8-2.46-3.7-4.38-.9-1.92-1.35-4.26-1.35-7.03s.45-5.14,1.35-7.07c.9-1.93,2.14-3.39,3.7-4.39,1.56-1,3.34-1.5,5.32-1.5s3.74.5,5.3,1.5c1.56,1,2.8,2.47,3.7,4.39.9,1.93,1.35,4.29,1.35,7.07s-.45,5.11-1.35,7.03Z"/>
      <path class="cls-1" d="M406.3,180.21c0,.73.01,1.72.04,2.96.02,1.25.06,2.55.12,3.92.01.3.03.56.04.84-.3-.57-.59-1.15-.9-1.72-.6-1.11-1.18-2.14-1.72-3.09-.55-.95-1.01-1.73-1.4-2.33l-12.74-20.24h-7.06v36.38h6.52v-18.24c0-.68-.01-1.61-.04-2.78s-.07-2.54-.12-4.09c-.03-.72-.06-1.47-.09-2.24.5.91.99,1.78,1.45,2.6.8,1.42,1.52,2.67,2.17,3.76.65,1.09,1.21,2.02,1.68,2.78l11.47,18.21h7.08v-36.38h-6.49v19.65Z"/>
      <path class="cls-1" d="M455.16,182.78c-.47-1.09-1.17-2.05-2.09-2.88-.92-.83-2.06-1.54-3.41-2.14-1.35-.59-2.91-1.09-4.69-1.5l-3.61-.86c-1.45-.34-2.66-.73-3.63-1.16-.97-.43-1.7-.95-2.19-1.56-.49-.61-.73-1.35-.73-2.21,0-.98.29-1.84.87-2.59.58-.75,1.38-1.34,2.42-1.77,1.03-.43,2.22-.65,3.55-.65,2.1,0,3.79.52,5.08,1.56,1.29,1.04,1.99,2.48,2.12,4.32h6.18c-.07-2.33-.65-4.34-1.75-6.03s-2.63-3-4.6-3.93c-1.97-.93-4.3-1.39-6.98-1.39s-4.96.45-6.97,1.35c-2.01.9-3.58,2.16-4.7,3.77s-1.68,3.51-1.68,5.69c0,2.56.86,4.64,2.58,6.26,1.72,1.62,4.33,2.84,7.82,3.65l3.96.93c1.55.36,2.82.77,3.81,1.23.99.46,1.73,1.01,2.2,1.65.47.63.71,1.39.71,2.27,0,1.06-.31,1.98-.94,2.77-.63.79-1.5,1.4-2.61,1.83-1.12.43-2.43.65-3.94.65-1.61,0-3.01-.26-4.2-.79-1.19-.53-2.11-1.29-2.77-2.29-.66-1-1.01-2.21-1.04-3.62h-6.35c.02,2.54.6,4.72,1.76,6.54,1.16,1.82,2.8,3.22,4.94,4.19,2.14.97,4.68,1.45,7.63,1.45s5.37-.45,7.46-1.36c2.09-.9,3.7-2.18,4.82-3.84s1.68-3.61,1.68-5.84c0-1.38-.24-2.62-.71-3.71Z"/>
    </g>
  </g>
</svg>
